<svg width="48" height="32" viewBox="0 0 48 32" fill="none" xmlns="http://www.w3.org/2000/svg">
<rect x="16" width="32" height="32" rx="16" fill="white"/>
<path d="M23 7H25L25.4 9M27 17H37L41 9H25.4M27 17L25.4 9M27 17L24.7071 19.2929C24.0771 19.9229 24.5233 21 25.4142 21H37M37 21C35.8954 21 35 21.8954 35 23C35 24.1046 35.8954 25 37 25C38.1046 25 39 24.1046 39 23C39 21.8954 38.1046 21 37 21ZM29 23C29 24.1046 28.1046 25 27 25C25.8954 25 25 24.1046 25 23C25 21.8954 25.8954 21 27 21C28.1046 21 29 21.8954 29 23Z" stroke="#9CA3AF" stroke-width="2" stroke-linecap="round" stroke-linejoin="round"/>
</svg>
