<svg width="17" height="16" viewBox="0 0 17 16" fill="none" xmlns="http://www.w3.org/2000/svg">
<path d="M15.9142 0.585786C15.1332 -0.195262 13.8668 -0.195262 13.0858 0.585786L5.5 8.17157V11H8.32842L15.9142 3.41421C16.6953 2.63316 16.6953 1.36683 15.9142 0.585786Z" fill="#6B7280"/>
<path fill-rule="evenodd" clip-rule="evenodd" d="M0.5 4C0.5 2.89543 1.39543 2 2.5 2H6.5C7.05228 2 7.5 2.44772 7.5 3C7.5 3.55228 7.05228 4 6.5 4H2.5V14H12.5V10C12.5 9.44772 12.9477 9 13.5 9C14.0523 9 14.5 9.44772 14.5 10V14C14.5 15.1046 13.6046 16 12.5 16H2.5C1.39543 16 0.5 15.1046 0.5 14V4Z" fill="#6B7280"/>
</svg>
