<svg width="15" height="16" viewBox="0 0 15 16" fill="none" xmlns="http://www.w3.org/2000/svg">
<path d="M5.5 3C4.94772 3 4.5 3.44771 4.5 4C4.5 4.55228 4.94772 5 5.5 5L11.0858 5L9.79289 6.29289C9.40237 6.68342 9.40237 7.31658 9.79289 7.70711C10.1834 8.09763 10.8166 8.09763 11.2071 7.70711L14.2071 4.70711C14.3946 4.51957 14.5 4.26522 14.5 4C14.5 3.73478 14.3946 3.48043 14.2071 3.29289L11.2071 0.292893C10.8166 -0.0976311 10.1834 -0.0976311 9.7929 0.292893C9.40237 0.683417 9.40237 1.31658 9.7929 1.70711L11.0858 3L5.5 3Z" fill="#6B7280"/>
<path d="M9.5 13C10.0523 13 10.5 12.5523 10.5 12C10.5 11.4477 10.0523 11 9.5 11L3.91421 11L5.20711 9.70711C5.59763 9.31658 5.59763 8.68342 5.20711 8.29289C4.81658 7.90237 4.18342 7.90237 3.7929 8.29289L0.792893 11.2929C0.605356 11.4804 0.5 11.7348 0.5 12C0.5 12.2652 0.605356 12.5196 0.792892 12.7071L3.79289 15.7071C4.18342 16.0976 4.81658 16.0976 5.20711 15.7071C5.59763 15.3166 5.59763 14.6834 5.20711 14.2929L3.91421 13L9.5 13Z" fill="#6B7280"/>
</svg>
