<svg width="10" height="10" viewBox="0 0 10 10" fill="none" xmlns="http://www.w3.org/2000/svg">
<path fill-rule="evenodd" clip-rule="evenodd" d="M5 0.125C2.3075 0.125 0.125 2.3075 0.125 5C0.125 7.6925 2.3075 9.875 5 9.875C7.6925 9.875 9.875 7.6925 9.875 5C9.875 2.3075 7.6925 0.125 5 0.125ZM5.375 2C5.375 1.90054 5.33549 1.80516 5.26516 1.73483C5.19484 1.66451 5.09946 1.625 5 1.625C4.90054 1.625 4.80516 1.66451 4.73484 1.73483C4.66451 1.80516 4.625 1.90054 4.625 2V5C4.625 5.207 4.793 5.375 5 5.375H7.25C7.34946 5.375 7.44484 5.33549 7.51517 5.26516C7.58549 5.19484 7.625 5.09946 7.625 5C7.625 4.90054 7.58549 4.80516 7.51517 4.73484C7.44484 4.66451 7.34946 4.625 7.25 4.625H5.375V2Z" fill="#6B7280"/>
</svg>
